<svg 
 xmlns="http://www.w3.org/2000/svg"
 xmlns:xlink="http://www.w3.org/1999/xlink"
 viewBox="0 0 1000 1100">
<path fill="currentColor" d="M28,1077L15,1241s-1.047,72.6,0,75,18,60,18,60l21,32,16,16,33,32s15.409,10.73,17,12,22,9,22,9,14.886-1.53,19-1,20.674-4,24-5,17.264-10.12,19-11,15-15,15-15l7-15-5-15s-3.617-10.46-4-14-0.891-11.59-1-15,9-165,9-165l1-9,5-10,10-5,9-1,12,4,96,64s5.611,9.31,11,11,24.5,7.05,28,8,24.031,4.34,29,5,22.565-.11,29,1,22.176,1.61,27,1,21.591-5.59,23-6,21-16,21-16l15-17,10-11s5.275-14.29,7-16,10-17,10-17l2-25s-1.155-22.29-1-24-3.8-14.33-4-16-7-18-7-18l-11-15-15-13-14-18-20-19-17-13-13-15s-7.622-18.23-8-21-2-22-2-22,2.565-22.623,3-24-2-30-2-30l-8-34-12-30-20-41s-12.58-8.928-13-12-21-19-21-19l-26-19-16-10-14-9-6-11,1-16,3-14,6-12,10-9,11-8,12,2s12.358,4.312,14,6,8.927,12.707,10,13S577,926,577,926l61,59,16,12s14.751,7.41,17,9,19.824,11.71,25,13,24.7,4.72,26,5,15.477,1.36,18,1,20.451-7.3,24-8,26.886-8.42,29-10,13-15,13-15,16.782-19.338,18-22,9.715-24.863,10-27-1-25-1-25l-17-43-25-37-19-29s-8.109-8.432-9-11-69-98-69-98L584,549,500,433l-23-34s-19.192-15.176-23-17-15.891-4.923-22-7-18.845-4.3-21-5-13.9-.571-18-1-15.389,2.627-17,4-19.166,14.669-20,16S187,545,187,545l-17,18s-6.026,12.081-6,14-0.751,18.321,0,21-1.653,11.55,1,16,5.368,15.054,8,19,10,17,10,17,11.99,7.315,17,12,59,48,59,48l7,10,2,10-1,8-4,9-9,5s-10.192-2.461-12-2-21,0-21,0l-28,5s-15.181,5.845-17,7-40,19-40,19l-22,20L84,847,70,874,40,929Zm66,7L81,1319l15,37s7.28,10.46,9,12,18,19,18,19l12,6h16l7-6,6-12,3-11,3-21,10-144s4.409-18.51,8-21,10.44-9.72,13-11,11.658-9.65,14-10,13.513-4.94,15-5,19-2,19-2l20,2s18.58,5.36,21,7,16.9,9.84,18,11,18.772,8.32,21,10,21,12,21,12l13,5,81,50s4.192,4.06,9,4,11-4,11-4l14-7s8.637-6.82,10-9,9-11,9-11l4-9,6-12,3-14v-12s-0.223-12.38-1-14-3.233-10.41-4-12-6-15-6-15l-5-9s-6.285-8.87-8-11-8-8-8-8l-14-12s-25.5-24.9-26-26-12.813-17.33-15-23-3.824-14.2-5-19-14.689-45.69-17-49-5.337-28.775-6-32-9.907-28.849-10-30-24-47-24-47l-27-27s-23.839-12.731-26-16-8.772-12.784-10-18-3.508-23.574-4-26-0.233-36.229,0-40,4.689-29.765,5-32,11-34.223,12-36,9.585-15.354,14-16,20.187-8.287,23-9,20.534-6.573,26-6,19.124,2.713,21,4,15.813,14.03,19,16,18.865,27.379,21,29S691,963,691,963l17,8s13.073,4.409,16,4,18.026-1.228,19-1,6.518-3.514,11-4,16.648-7.172,18-8,7.58-10.841,9-12,6-15,6-15-1.233-15.2-2-17-6-16-6-16l-9-12L596,649,460,461l-12-9-10-4-17-4-11-3-11,2H387s-13.948,3.554-16,5-109,92-109,92l-41,38-6,17s2.756,10.342,4,12,4.228,10.012,6,12a217.792,217.792,0,0,0,17,15c3.632,2.583,12.948,9.625,15,11s15.451,10.481,18,13,9.3,9.5,11,10,9,3,9,3a61.1,61.1,0,0,0,0,12c0.684,5.808-1.057,22.795-2,25s-2.518,22.584-3,24-2.979,26.669-3,30-10.2,28.754-12,32-13.9,10.786-20,13-19.762,5.434-22,6-15.264,4.72-18,5-26,6-26,6-17.751,10.7-21,15-33.383,31.6-35,35-13.15,21.954-15,27-8.72,22.841-10,27-5.28,35.025-6,37S94,1084,94,1084Zm267-39"/>
</svg>
