<svg 
 xmlns="http://www.w3.org/2000/svg"
 xmlns:xlink="http://www.w3.org/1999/xlink"
 viewBox="0 0 1000 1100">
<path fill="currentColor"
 d="M251.000,378.000 C251.658,370.379 257.598,364.612 255.000,355.000 C250.336,337.747 230.822,327.567 218.000,318.000 C209.324,311.526 201.711,302.448 193.000,296.000 C186.777,291.394 178.495,287.222 174.000,281.000 C167.599,272.138 164.214,258.639 161.000,247.000 C158.024,236.221 153.071,196.679 158.000,189.000 C160.808,184.625 166.793,181.179 171.000,178.000 C183.808,168.322 193.943,154.866 207.000,145.000 C215.394,138.658 221.599,128.351 230.000,122.000 C256.834,101.714 278.165,75.279 305.000,55.000 C329.562,36.439 342.722,8.231 378.000,0.000 C385.666,0.333 393.334,0.667 401.000,1.000 C420.539,0.690 453.541,7.313 462.000,20.000 C463.000,23.333 464.000,26.667 465.000,30.000 C468.209,36.203 472.842,43.751 477.000,50.000 C483.278,59.436 492.490,67.744 499.000,77.000 C502.905,82.553 505.105,88.440 509.000,94.000 C549.396,151.661 592.530,208.406 633.000,266.000 C671.522,320.821 708.514,375.888 748.000,430.000 C753.328,437.301 761.570,443.459 767.000,451.000 C774.144,460.920 780.778,470.245 788.000,480.000 C790.044,482.761 794.104,485.155 796.000,488.000 C800.138,494.211 800.928,501.852 804.000,509.000 C808.168,518.696 814.608,528.605 818.000,539.000 C824.883,560.095 821.831,589.928 812.000,606.000 C802.726,621.160 787.960,638.782 771.000,646.000 C720.995,667.281 666.523,643.084 632.000,622.000 C617.763,613.305 607.759,602.096 597.000,590.000 C586.668,580.001 576.332,569.999 566.000,560.000 C558.429,549.957 550.550,541.029 543.000,531.000 C536.072,521.797 525.934,514.200 519.000,505.000 C496.684,475.391 470.315,449.635 448.000,420.000 C442.916,413.249 435.088,407.749 430.000,401.000 C420.318,388.158 409.691,376.836 400.000,364.000 C396.000,360.334 392.000,356.666 388.000,353.000 C377.279,338.831 364.798,321.918 340.000,322.000 C335.177,328.729 325.048,331.512 320.000,338.000 C312.969,347.037 310.972,369.025 311.000,386.000 C313.979,387.956 314.565,390.766 317.000,393.000 C320.214,395.948 325.237,396.659 329.000,399.000 C339.818,405.729 353.510,412.409 364.000,420.000 C402.475,447.841 430.077,493.400 444.000,546.000 C449.346,566.195 446.010,591.475 446.000,614.000 C445.000,630.998 444.000,648.002 443.000,665.000 C437.098,691.156 440.918,721.848 435.000,748.000 C434.667,755.999 434.333,764.001 434.000,772.000 C428.963,794.247 432.029,820.820 427.000,843.000 C426.667,850.999 426.333,859.001 426.000,867.000 C423.545,874.424 417.194,880.355 413.000,886.000 C408.999,891.386 405.507,898.293 400.000,902.000 C392.894,906.784 373.614,908.020 364.000,904.000 C347.072,896.922 332.605,885.252 318.000,876.000 C301.780,865.725 285.989,856.490 270.000,846.000 C262.064,840.793 240.884,821.101 228.000,829.000 C218.942,831.885 211.702,839.200 212.000,852.000 C209.344,856.401 212.296,865.033 211.000,871.000 C208.540,882.328 210.448,897.669 208.000,909.000 C208.000,914.999 208.000,921.001 208.000,927.000 C205.538,938.328 207.449,953.669 205.000,965.000 C205.000,971.333 205.000,977.667 205.000,984.000 C202.494,995.526 205.768,1009.276 203.000,1022.000 C201.110,1030.688 203.139,1041.190 201.000,1051.000 C195.990,1073.975 197.547,1101.122 193.000,1123.000 C189.334,1123.000 185.666,1123.000 182.000,1123.000 C174.411,1118.172 162.455,1119.691 153.000,1117.000 C140.037,1113.310 126.648,1108.469 114.000,1103.000 C107.844,1100.338 102.395,1094.601 97.000,1091.000 C54.236,1062.456 30.122,1028.045 9.000,978.000 C1.645,960.575 -2.251,932.484 3.000,909.000 C5.914,895.966 2.362,881.803 5.000,870.000 C7.837,857.308 4.430,843.507 7.000,832.000 C7.000,825.667 7.000,819.333 7.000,813.000 C8.761,801.243 7.422,785.548 10.000,774.000 C10.667,754.669 11.333,735.331 12.000,716.000 C13.336,710.045 13.714,700.884 15.000,695.000 C16.165,689.667 12.186,685.907 13.000,683.000 C14.000,682.333 15.000,681.667 16.000,681.000 C16.333,675.001 16.667,668.999 17.000,663.000 C20.720,646.582 19.298,626.380 23.000,610.000 C24.333,592.335 25.667,574.665 27.000,557.000 C28.695,551.867 33.482,545.828 36.000,541.000 C43.587,526.453 49.769,511.457 58.000,498.000 C71.305,476.248 82.220,454.299 97.000,434.000 C99.953,429.944 104.932,427.073 109.000,424.000 C111.666,421.000 114.334,418.000 117.000,415.000 C121.530,411.729 127.089,410.978 132.000,408.000 C150.990,396.484 162.530,392.175 188.000,386.000 C197.875,383.606 208.219,384.002 217.000,382.000 C223.666,382.000 230.334,382.000 237.000,382.000 C241.064,380.769 245.205,378.461 251.000,378.000 ZM386.000,78.000 C383.347,79.592 378.816,77.953 375.000,79.000 C369.611,80.478 357.235,84.078 352.000,87.000 C339.633,93.903 328.410,109.390 317.000,118.000 C291.514,137.232 266.437,158.565 244.000,181.000 C235.000,189.999 226.002,199.003 217.000,208.000 C214.572,210.427 207.370,214.117 206.000,217.000 C206.000,222.333 206.000,227.667 206.000,233.000 C207.589,234.947 207.508,237.779 209.000,240.000 C212.066,244.565 217.538,248.622 222.000,252.000 C232.870,260.229 240.509,273.177 252.000,281.000 C258.826,285.647 273.574,290.791 278.000,297.000 C282.734,303.640 283.437,319.382 281.000,330.000 C276.607,349.144 276.352,371.794 272.000,391.000 C271.000,400.332 270.000,409.668 269.000,419.000 C261.625,439.508 229.536,443.601 207.000,449.000 C201.667,449.333 196.333,449.667 191.000,450.000 C182.963,453.190 174.210,460.419 166.000,464.000 C160.659,466.330 155.566,466.840 151.000,470.000 C147.619,472.340 145.520,477.657 143.000,481.000 C137.667,486.000 132.333,491.000 127.000,496.000 C115.784,512.119 105.678,530.635 99.000,551.000 C95.404,561.967 96.801,573.041 94.000,585.000 C84.461,625.734 88.175,675.767 79.000,718.000 C79.000,722.666 79.000,727.334 79.000,732.000 C74.143,754.554 77.861,781.480 73.000,804.000 C73.000,808.999 73.000,814.001 73.000,819.000 C68.280,841.155 71.759,867.854 67.000,890.000 C67.000,894.999 67.000,900.000 67.000,905.000 C58.403,945.901 81.643,988.642 100.000,1007.000 C105.811,1012.812 113.740,1022.207 122.000,1025.000 C127.000,1025.000 132.001,1025.000 137.000,1025.000 C139.741,1021.570 144.976,1022.022 148.000,1019.000 L154.000,1008.000 C154.000,1004.000 154.000,1000.000 154.000,996.000 C156.726,983.650 157.000,969.796 157.000,955.000 C157.000,948.334 157.000,941.666 157.000,935.000 C163.174,906.859 159.975,875.246 166.000,848.000 C168.672,835.916 166.678,826.394 171.000,817.000 C172.699,813.306 177.229,810.773 180.000,808.000 C194.905,793.084 195.977,790.651 221.000,785.000 C231.201,782.696 248.318,779.738 260.000,783.000 C282.416,789.260 302.241,800.736 322.000,811.000 C330.570,815.452 336.911,822.235 349.000,823.000 C351.667,820.556 356.883,819.939 359.000,817.000 C362.678,811.893 365.351,801.225 367.000,795.000 C367.000,789.667 367.000,784.333 367.000,779.000 C372.396,753.944 367.581,724.051 373.000,699.000 C373.000,693.667 373.000,688.333 373.000,683.000 C376.151,668.314 372.667,650.558 376.000,635.000 C378.063,625.370 375.681,613.825 378.000,603.000 C385.257,569.123 370.362,528.849 357.000,509.000 C345.618,492.092 329.180,478.212 312.000,467.000 C302.357,460.707 288.166,456.468 282.000,447.000 C268.213,425.831 274.356,381.262 280.000,356.000 C280.000,351.667 280.000,347.333 280.000,343.000 C283.748,325.942 283.237,307.291 289.000,293.000 C307.923,281.792 354.352,258.745 382.000,276.000 C388.517,280.067 393.615,287.614 399.000,293.000 C416.586,310.587 433.898,328.982 449.000,349.000 C454.934,356.866 464.062,363.137 470.000,371.000 C494.434,403.359 524.580,430.635 549.000,463.000 C554.935,470.865 564.062,477.137 570.000,485.000 C581.389,500.081 594.625,512.924 606.000,528.000 C609.807,533.045 616.190,536.957 620.000,542.000 C627.165,551.485 635.745,558.687 644.000,567.000 C645.667,569.333 647.333,571.667 649.000,574.000 C652.476,576.655 657.345,576.563 661.000,579.000 C686.356,595.907 709.027,616.809 748.000,600.000 C759.611,594.992 772.742,588.778 773.000,573.000 C778.866,564.001 767.807,539.412 765.000,534.000 C759.064,522.554 750.052,514.962 743.000,505.000 C728.424,484.408 713.101,464.507 699.000,444.000 C634.973,350.889 564.931,262.058 500.000,170.000 C488.733,154.026 477.028,138.676 466.000,123.000 C445.817,94.309 435.576,77.885 386.000,78.000 Z"/>
</svg>