<svg 
 xmlns="http://www.w3.org/2000/svg"
 xmlns:xlink="http://www.w3.org/1999/xlink"
 viewBox="0 0 1000 1100">
<path fill="currentColor" d="M28,1080L15,1312l3,10s2.073,10.37,4,15,6.171,19.03,8,23,8.542,20.32,9,21,47,56,47,56l22,17s10.624,6.67,16,9,20.831,12.32,27,14,16.212,3.86,21,4,12.041-2.59,14-3,13-8,13-8,5.967-9.8,7-12,4.335-8.35,5-11,2.975-15,4-17,3-13,3-13l-1-19,10-182,2-8a67.89,67.89,0,0,0,5-5c1.371-1.7,5.91-7.4,8-7s11.283,0.79,12,1,7.839,1.16,10,3a73.553,73.553,0,0,0,14,8c3.42,1.2,80,53,80,53l13,7s13.319-.24,18,1,17.062-.33,20-2,9.253-4.98,11-7,8.809-8.35,11-12,6.9-10.64,7-13,2-16,2-16l19-219s2.561-48.9,2-52-4-39-4-39l-5-19-12-29-13-23-19-28-47-35-12-8-16-9-9-13,3-18,3-14,7-11s6.457-7.67,8-8,8-4,8-4l10-1,15,7,10,11,14,14s16.16,15.825,17,17,13.629,20.117,15,21,24,25,24,25l23,26,19,19L632,979l34,24,27,11,41,7s20.656-3.83,26-4,25.043-8.66,28-10,15.784-11.215,17-12,11-13,11-13,8.531-16.063,10-18,4-21,4-21,1.261-30.2,1-32-8.474-25.591-9-28-8-19-8-19-29.42-42.739-31-44-17-19-17-19-2.526-25.962-2-27,4.934-23.987,6-26a13.085,13.085,0,0,0,1-2l30-90,7-23,2-21-1-24s-12.954-41.262-14-43-12-16-12-16l-11-10-13-13-13-11-30-36s-11.311-7.166-13-9-12.507-7.9-15-8-14.706-2.9-18-3-13.812-1.357-17-1-18.556,1.463-20,2-10.845,3.741-15,5-21,7-21,7-33.711,10.03-35,11-20,8-20,8l-14-5-10-12s-20.679-28.826-21-30-14-18-14-18-12.251-16.586-14-18-16.087-7.867-19-9-16.107-6.327-20-7-25.4-2.33-28-3-13.965.49-17,1-15.434,5.588-17,7-46,41-46,41l-73,69-45,40-15,15-7,15s-2.968,11.586-3,15-1.695,18.7-1,21,0.76,23.444,1,25,6.5,19.828,8,22,9.231,15.387,10,16,17,15,17,15l42,32a40.866,40.866,0,0,1,5,6c1.619,2.654,7.842,11.084,8,13s0.022,13.736-1,16-5.077,6.013-7,7-18.643,2.2-22,2a142.07,142.07,0,0,0-21,1c-6.607.984-23.867,4.112-26,5s-19.976,8.12-21,9-24,12-24,12l-27,14-9,15s-10.131,14.992-11,17-17,25-17,25-6.79,15.667-8,18-6.523,10.223-7,12-28,62-28,62-2.461,15.842-3,18-3,63-3,63Zm65,1L78,1255s-0.968,19.32,0,23,6,45,6,45l11,26s25.8,32.14,29,35,10.542,5.05,13,6,20-2,20-2,4.746-7.59,6-9,4.932-7.79,5-11,0-20,0-20l10-130,5-25s7.046-16.33,9-19,11.06-13.07,14-14,10.983-6.89,15-8,15.362-2.8,18-4,23-1,23-1l22,5,25,12,18,13,27,15s10.749-2.49,12-3a79.489,79.489,0,0,0,10-7c1.06-1.14,5.125-12.69,5-14s3-31,3-31l6-101s3.5-91.627,4-93-2.047-16.643-2-18-7-20-7-20l-10-16s-22.175-34.529-23-37-14-12-14-12l-17-12-9-6s-9.038-6.2-10-8-5.681-9.12-7-12-3.957-12.771-4-16,0.043-14.057,0-16,0.953-19.621,1-21,3.866-18.365,4-19,9.147-33.67,9-35,4.975-20.512,8-24,5.438-9.341,9-12,9.447-11.531,11-12,11-7,11-7,14.929-3.632,18-4,13.577-.085,15,1,16,5,16,5,10.605,8.384,13,10,17,15,17,15l11,15L632,909l60,53s17.517,8.945,19,9,15.351,2.038,17,2,18.1,0.038,19,0,17.111-8.06,18-8,13.487-10.071,14-11,6-12,6-12,0.948-15.371,1-17-4-17-4-17l-8-15-10-15-19-28-8-15s-6.921-15.831-7-17-2-22-2-22,3.261-35.8,3-38-0.191-35.376,1-38,6-30,6-30,17.921-46.537,18-48,4-23,4-23-0.259-21.853-1-24-9-18-9-18l-33-50s-13.946-13.564-14-15-21-27-21-27a106.95,106.95,0,0,0-11-3c-4.566-.864-9.717-1.681-13-1a24.774,24.774,0,0,0-8,3c-2.64,1.5-7.643,3.6-11,5s-21,6-21,6-18.771,4.883-21,6-11.782,4.523-13,5-6.8.978-13,1-13.537.523-16,0-11.461-2.207-15-3-16-4-16-4-16.216-2.76-17-4-21-9-21-9-18.526-20.7-20-22-13.54-10.616-15-11-24.567-11.9-28-12-25.232-1.082-30-1-17.793,3.558-20,4-18,12-18,12L229,572s-4.109,7.136-5,8-2.929,8.7-3,12,0,13,0,13a10.69,10.69,0,0,0,3,6c2.652,2.561,11.359,11.722,13,13s30.212,19.474,35,24,9.948,9.12,12,12,10.411,18.5,11,22,2.594,14.335,2,16-5,30-5,30l-6,35s-7.06,9.133-8,12-5.981,12.512-10,16-13.267,11.613-16,13-14.374,6.346-17,7-14.845,3.531-18,4-17.957,4.174-22,6-21.521,9.182-23,10-17.54,10.283-20,11-13,16-13,16l-33,73s-0.853,12.654-1,16-2.583,20.676-3,24-1.583,15.7-1,20-5.951,35.73-5,38S93,1081,93,1081Z"/>
</svg>
